<?xml version="1.0" encoding="utf-8"?>
<!-- Svg Vector Icons : http://www.onlinewebfonts.com/icon -->
<!DOCTYPE svg PUBLIC "-//W3C//DTD SVG 1.1//EN" "http://www.w3.org/Graphics/SVG/1.1/DTD/svg11.dtd">
<svg version="1.1" xmlns="http://www.w3.org/2000/svg" xmlns:xlink="http://www.w3.org/1999/xlink" x="0px" y="0px" viewBox="0 0 1000 1000" enable-background="new 0 0 1000 1000" xml:space="preserve">
<metadata> Svg Vector Icons : http://www.onlinewebfonts.com/icon </metadata>
<g><path d="M500,10C232.1,10,10,232.1,10,500c0,267.9,222.1,490,490,490c267.9,0,490-222.1,490-490C990,232.1,767.9,10,500,10z M500,892c-215.6,0-392-176.4-392-392c0-215.6,176.4-392,392-392c215.6,0,392,176.4,392,392C892,715.6,715.6,892,500,892z"/><path d="M500,238.7c143.7,0,261.3,117.6,261.3,261.3c0,143.7-117.6,261.3-261.3,261.3S238.7,643.7,238.7,500C238.7,356.3,356.3,238.7,500,238.7z"/></g>
</svg>