<?xml version="1.0" encoding="UTF-8"?>
<svg width="700pt" height="700pt" version="1.1" viewBox="0 0 700 700" xmlns="http://www.w3.org/2000/svg">
 <g>
  <path d="m282.8 358.4h179.2c20.008 0 38.492-10.672 48.496-28 10.004-17.324 10.004-38.672 0-56-10.004-17.324-28.488-28-48.496-28-6.1875 0-11.199 5.0156-11.199 11.203 0 6.1836 5.0117 11.199 11.199 11.199 12.004 0 23.098 6.4023 29.098 16.801 6.0039 10.395 6.0039 23.203 0 33.598-6 10.398-17.094 16.801-29.098 16.801h-179.2c-6.1875 0-11.199 5.0156-11.199 11.199 0 6.1875 5.0117 11.199 11.199 11.199z"/>
  <path d="m238 403.2h246.4c6.1875 0 11.203-5.0117 11.203-11.199s-5.0156-11.199-11.203-11.199h-246.4c-12.004 0-23.098-6.4062-29.098-16.801-6.0039-10.395-6.0039-23.203 0-33.602 6-10.395 17.094-16.797 29.098-16.797 6.1875 0 11.199-5.0156 11.199-11.203 0-6.1836-5.0117-11.199-11.199-11.199-20.008 0-38.492 10.676-48.496 28-10.004 17.328-10.004 38.676 0 56 10.004 17.328 28.488 28 48.496 28z"/>
  <path d="m518 425.6h-336c-6.1875 0-11.199 5.0117-11.199 11.199 0 6.1836 5.0117 11.199 11.199 11.199h336c6.1875 0 11.199-5.0156 11.199-11.199 0-6.1875-5.0117-11.199-11.199-11.199z"/>
  <path d="m342.16 310.24c0.94531 1.1367 2.1875 1.9883 3.582 2.4648 2.7109 1.1992 5.8047 1.1992 8.5156 0 1.2539-0.61719 2.3906-1.4492 3.3594-2.4648l44.801-44.801-0.003907 0.003906c4.332-4.332 4.332-11.352 0-15.68-4.3281-4.332-11.348-4.332-15.68 0l-25.535 25.535v-84.898c0-6.1836-5.0117-11.199-11.199-11.199s-11.199 5.0156-11.199 11.199v84.895l-25.762-25.535v0.003907c-4.3281-4.332-11.348-4.332-15.68 0-4.3281 4.3281-4.3281 11.348 0 15.68z"/>
 </g>
</svg>
